<svg width="24" height="24" viewBox="0 0 24 24" fill="none" xmlns="http://www.w3.org/2000/svg">
<path d="M20.8999 9.85L21.4899 19.74C21.5099 20.01 21.3799 20.19 21.3099 20.27C21.2299 20.36 21.0599 20.5 20.7799 20.5H18.0499L20.2099 9.85H20.8999ZM21.9999 6L21.9899 6.02C22.0099 6.26 21.9899 6.51 21.9299 6.76L14.5599 20.29C14.3199 21.3 13.4199 22 12.3799 22H20.7799C22.0699 22 23.0899 20.91 22.9899 19.62L21.9999 6Z" fill="#FBFBFB"/>
<path d="M11.45 2.23999C11.55 1.83999 11.3 1.42999 10.9 1.32999C10.5 1.23999 10.09 1.47999 9.98999 1.87999L9.48999 3.94999H11.03L11.45 2.23999Z" fill="#FBFBFB"/>
<path d="M18.0499 2.20999C18.1399 1.79999 17.8799 1.40999 17.4699 1.31999C17.0699 1.22999 16.6699 1.48999 16.5799 1.89999L16.1299 3.96999H17.6699L18.0499 2.20999Z" fill="#FBFBFB"/>
<path d="M21.82 5.33C21.49 4.53 20.71 3.96 19.75 3.96H17.67L17.11 6.55C17.03 6.9 16.72 7.14 16.38 7.14C16.33 7.14 16.27 7.14 16.22 7.12C15.82 7.03 15.56 6.63 15.64 6.23L16.13 3.95H11.03L10.4 6.55C10.32 6.89 10.01 7.12 9.67 7.12C9.61 7.12 9.55 7.11 9.49 7.1C9.09 7 8.84 6.6 8.94 6.19L9.48 3.94H7.45C6.47 3.94 5.6 4.58 5.31 5.52L1.1 19.07C0.659999 20.52 1.73 22 3.24 22H16.38C17.42 22 18.32 21.3 18.56 20.29L21.93 6.76C21.99 6.51 22.01 6.26 21.99 6.02C21.97 5.78 21.92 5.54 21.82 5.33ZM14.7 16.75H6.7C6.29 16.75 5.95 16.41 5.95 16C5.95 15.59 6.29 15.25 6.7 15.25H14.7C15.11 15.25 15.45 15.59 15.45 16C15.45 16.41 15.11 16.75 14.7 16.75ZM15.7 12.75H7.7C7.29 12.75 6.95 12.41 6.95 12C6.95 11.59 7.29 11.25 7.7 11.25H15.7C16.11 11.25 16.45 11.59 16.45 12C16.45 12.41 16.11 12.75 15.7 12.75Z" fill="#FBFBFB"/>
</svg>
