<svg width="22" height="20" viewBox="0 0 22 20" fill="none" xmlns="http://www.w3.org/2000/svg">
<path fill-rule="evenodd" clip-rule="evenodd" d="M7.10773 1.66666H14.4557C17.1639 1.66666 18.6719 3.14999 18.6719 5.69166V14.3C18.6719 16.8833 17.1639 18.3333 14.4557 18.3333H7.10773C4.44245 18.3333 2.89062 16.8833 2.89062 14.3V5.69166C2.89062 3.14999 4.44245 1.66666 7.10773 1.66666ZM7.34444 5.54999V5.54166H9.96501C10.3429 5.54166 10.6497 5.83332 10.6497 6.19082C10.6497 6.55832 10.3429 6.84999 9.96501 6.84999H7.34444C6.96657 6.84999 6.66059 6.55832 6.66059 6.19999C6.66059 5.84166 6.96657 5.54999 7.34444 5.54999ZM7.34444 10.6167H14.2181C14.5951 10.6167 14.9019 10.325 14.9019 9.96666C14.9019 9.60832 14.5951 9.31582 14.2181 9.31582H7.34444C6.96657 9.31582 6.66059 9.60832 6.66059 9.96666C6.66059 10.325 6.96657 10.6167 7.34444 10.6167ZM7.34444 14.425H14.2181C14.5679 14.3917 14.8318 14.1075 14.8318 13.775C14.8318 13.4333 14.5679 13.15 14.2181 13.1167H7.34444C7.08142 13.0917 6.82717 13.2083 6.68689 13.425C6.54661 13.6333 6.54661 13.9083 6.68689 14.125C6.82717 14.3333 7.08142 14.4583 7.34444 14.425Z" fill="#656565"/>
</svg>
