<svg width="20" height="20" viewBox="0 0 20 20" fill="none" xmlns="http://www.w3.org/2000/svg">
<g opacity="0.3">
<path d="M10.0167 2.42499C7.25835 2.42499 5.01668 4.66665 5.01668 7.42499V9.83332C5.01668 10.3417 4.80001 11.1167 4.54168 11.55L3.58335 13.1417C2.99168 14.125 3.40001 15.2167 4.48335 15.5833C8.07501 16.7833 11.95 16.7833 15.5417 15.5833C16.55 15.25 16.9917 14.0583 16.4417 13.1417L15.4833 11.55C15.2333 11.1167 15.0167 10.3417 15.0167 9.83332V7.42499C15.0167 4.67499 12.7667 2.42499 10.0167 2.42499Z" stroke="white" stroke-width="1.5" stroke-miterlimit="10" stroke-linecap="round"/>
<path d="M11.5583 2.66664C11.3 2.59164 11.0333 2.5333 10.7583 2.49997C9.95831 2.39997 9.19164 2.4583 8.47498 2.66664C8.71664 2.04997 9.31664 1.61664 10.0166 1.61664C10.7166 1.61664 11.3166 2.04997 11.5583 2.66664Z" stroke="white" stroke-width="1.5" stroke-miterlimit="10" stroke-linecap="round" stroke-linejoin="round"/>
<path d="M12.5167 15.8834C12.5167 17.2584 11.3917 18.3834 10.0167 18.3834C9.33333 18.3834 8.7 18.1 8.25 17.65C7.8 17.2 7.51666 16.5667 7.51666 15.8834" stroke="white" stroke-width="1.5" stroke-miterlimit="10"/>
</g>
</svg>
