<svg width="20" height="20" viewBox="0 0 20 20" fill="none" xmlns="http://www.w3.org/2000/svg">
<g opacity="0.3">
<path d="M15.1167 18.0167C14.3834 18.2333 13.5167 18.3334 12.5 18.3334H7.50003C6.48336 18.3334 5.6167 18.2333 4.88336 18.0167C5.0667 15.85 7.29169 14.1417 10 14.1417C12.7084 14.1417 14.9334 15.85 15.1167 18.0167Z" stroke="white" stroke-width="1.5" stroke-linecap="round" stroke-linejoin="round"/>
<path d="M12.5 1.66669H7.50002C3.33335 1.66669 1.66669 3.33335 1.66669 7.50002V12.5C1.66669 15.65 2.61669 17.375 4.88335 18.0167C5.06669 15.85 7.29169 14.1417 10 14.1417C12.7084 14.1417 14.9334 15.85 15.1167 18.0167C17.3834 17.375 18.3334 15.65 18.3334 12.5V7.50002C18.3334 3.33335 16.6667 1.66669 12.5 1.66669ZM10 11.8083C8.35002 11.8083 7.01669 10.4667 7.01669 8.8167C7.01669 7.1667 8.35002 5.83335 10 5.83335C11.65 5.83335 12.9834 7.1667 12.9834 8.8167C12.9834 10.4667 11.65 11.8083 10 11.8083Z" stroke="white" stroke-width="1.5" stroke-linecap="round" stroke-linejoin="round"/>
<path d="M12.9833 8.81666C12.9833 10.4667 11.65 11.8083 10 11.8083C8.35 11.8083 7.01666 10.4667 7.01666 8.81666C7.01666 7.16666 8.35 5.83331 10 5.83331C11.65 5.83331 12.9833 7.16666 12.9833 8.81666Z" stroke="white" stroke-width="1.5" stroke-linecap="round" stroke-linejoin="round"/>
</g>
</svg>
