<svg width="18" height="18" viewBox="0 0 18 18" fill="none" xmlns="http://www.w3.org/2000/svg">
<path d="M12.75 15.75H5.25C2.25 15.75 1.5 15 1.5 12V6C1.5 3 2.25 2.25 5.25 2.25H12.75C15.75 2.25 16.5 3 16.5 6V12C16.5 15 15.75 15.75 12.75 15.75Z" stroke="#232323" stroke-width="1.5" stroke-linecap="round" stroke-linejoin="round"/>
<path d="M10.5 6H14.25" stroke="#232323" stroke-width="1.5" stroke-linecap="round" stroke-linejoin="round"/>
<path d="M11.25 9H14.25" stroke="#232323" stroke-width="1.5" stroke-linecap="round" stroke-linejoin="round"/>
<path d="M12.75 12H14.25" stroke="#232323" stroke-width="1.5" stroke-linecap="round" stroke-linejoin="round"/>
<path d="M6.37496 8.4675C7.12468 8.4675 7.73246 7.85973 7.73246 7.11C7.73246 6.36028 7.12468 5.7525 6.37496 5.7525C5.62523 5.7525 5.01746 6.36028 5.01746 7.11C5.01746 7.85973 5.62523 8.4675 6.37496 8.4675Z" stroke="#232323" stroke-width="1.5" stroke-linecap="round" stroke-linejoin="round"/>
<path d="M9 12.2475C8.895 11.16 8.0325 10.305 6.945 10.2075C6.57 10.17 6.1875 10.17 5.805 10.2075C4.7175 10.3125 3.855 11.16 3.75 12.2475" stroke="#232323" stroke-width="1.5" stroke-linecap="round" stroke-linejoin="round"/>
</svg>
