<svg width="20" height="20" viewBox="0 0 20 20" fill="none" xmlns="http://www.w3.org/2000/svg">
<path fill-rule="evenodd" clip-rule="evenodd" d="M6.50833 1.66666H13.4925C16.0667 1.66666 17.5 3.14999 17.5 5.69166V14.3C17.5 16.8833 16.0667 18.3333 13.4925 18.3333H6.50833C3.975 18.3333 2.5 16.8833 2.5 14.3V5.69166C2.5 3.14999 3.975 1.66666 6.50833 1.66666ZM6.73333 5.54999V5.54166H9.22417C9.58333 5.54166 9.875 5.83332 9.875 6.19082C9.875 6.55832 9.58333 6.84999 9.22417 6.84999H6.73333C6.37417 6.84999 6.08333 6.55832 6.08333 6.19999C6.08333 5.84166 6.37417 5.54999 6.73333 5.54999ZM6.73333 10.6167H13.2667C13.625 10.6167 13.9167 10.325 13.9167 9.96666C13.9167 9.60832 13.625 9.31582 13.2667 9.31582H6.73333C6.37417 9.31582 6.08333 9.60832 6.08333 9.96666C6.08333 10.325 6.37417 10.6167 6.73333 10.6167ZM6.73333 14.425H13.2667C13.5992 14.3917 13.85 14.1075 13.85 13.775C13.85 13.4333 13.5992 13.15 13.2667 13.1167H6.73333C6.48333 13.0917 6.24167 13.2083 6.10833 13.425C5.975 13.6333 5.975 13.9083 6.10833 14.125C6.24167 14.3333 6.48333 14.4583 6.73333 14.425Z" fill="#656565"/>
</svg>
