<svg width="20" height="20" viewBox="0 0 20 20" fill="none" xmlns="http://www.w3.org/2000/svg">
<path fill-rule="evenodd" clip-rule="evenodd" d="M7.41671 1.66666H12.5584C14.8167 1.66666 16.6417 2.55832 16.6667 4.82499V17.475C16.6667 17.6167 16.6334 17.7583 16.5667 17.8833C16.4584 18.0833 16.275 18.2333 16.05 18.3C15.8334 18.3667 15.5917 18.3333 15.3917 18.2167L9.99171 15.5167L4.58337 18.2167C4.45921 18.2825 4.31671 18.325 4.17504 18.325C3.70837 18.325 3.33337 17.9417 3.33337 17.475V4.82499C3.33337 2.55832 5.16671 1.66666 7.41671 1.66666ZM6.85004 8.01666H13.125C13.4834 8.01666 13.775 7.72416 13.775 7.35832C13.775 6.99166 13.4834 6.69999 13.125 6.69999H6.85004C6.49171 6.69999 6.20004 6.99166 6.20004 7.35832C6.20004 7.72416 6.49171 8.01666 6.85004 8.01666Z" fill="white"/>
</svg>
