<svg width="20" height="20" viewBox="0 0 20 20" fill="none" xmlns="http://www.w3.org/2000/svg">
<path fill-rule="evenodd" clip-rule="evenodd" d="M6.39163 1.66599H13.6166C16.4416 1.66599 18.3333 3.64932 18.3333 6.59932V13.4085C18.3333 16.3502 16.4416 18.3327 13.6166 18.3327H6.39163C3.56663 18.3327 1.66663 16.3502 1.66663 13.4085V6.59932C1.66663 3.64932 3.56663 1.66599 6.39163 1.66599ZM9.99163 7.55015C9.59996 7.55015 9.27496 7.22432 9.27496 6.82515C9.27496 6.41682 9.59996 6.09182 10.0083 6.09182C10.4083 6.09182 10.7333 6.41682 10.7333 6.82515C10.7333 7.22432 10.4083 7.55015 9.99163 7.55015ZM10.725 13.1502C10.725 13.5502 10.4 13.8752 9.99163 13.8752C9.59163 13.8752 9.26663 13.5502 9.26663 13.1502V9.46682C9.26663 9.06598 9.59163 8.73348 9.99163 8.73348C10.4 8.73348 10.725 9.06598 10.725 9.46682V13.1502Z" fill="white"/>
</svg>
