<svg width="22" height="20" viewBox="0 0 22 20" fill="none" xmlns="http://www.w3.org/2000/svg">
<path fill-rule="evenodd" clip-rule="evenodd" d="M13.0052 3.70174L19.378 14.2143C19.5183 14.5281 19.5797 14.7833 19.5972 15.0484C19.6322 15.6677 19.4043 16.2696 18.9573 16.7329C18.5102 17.1945 17.9054 17.467 17.2479 17.5H4.41467C4.14293 17.4843 3.87119 17.4257 3.61698 17.3349C2.34592 16.8477 1.73231 15.4769 2.2495 14.2887L8.66612 3.69431C8.88527 3.3219 9.21838 3.00068 9.63037 2.79424C10.8225 2.16585 12.339 2.57872 13.0052 3.70174ZM11.5939 10.6298C11.5939 11.0261 11.2521 11.3573 10.8313 11.3573C10.4105 11.3573 10.0599 11.0261 10.0599 10.6298V8.29373C10.0599 7.89654 10.4105 7.57533 10.8313 7.57533C11.2521 7.57533 11.5939 7.89654 11.5939 8.29373V10.6298ZM10.8313 14.1813C10.4105 14.1813 10.0599 13.8502 10.0599 13.4547C10.0599 13.0575 10.4105 12.7272 10.8313 12.7272C11.2521 12.7272 11.5939 13.05 11.5939 13.4456C11.5939 13.8502 11.2521 14.1813 10.8313 14.1813Z" fill="white"/>
</svg>
