<svg width="127" height="24" viewBox="0 0 127 24" fill="none" xmlns="http://www.w3.org/2000/svg">
<path d="M4.45067 13.9082L11.4033 20.4394C11.6428 20.6644 11.7625 20.7769 11.9037 20.8046C11.9673 20.8171 12.0327 20.8171 12.0963 20.8046C12.2375 20.7769 12.3572 20.6644 12.5967 20.4394L19.5493 13.9082C21.5055 12.0706 21.743 9.0466 20.0978 6.92606L19.7885 6.52734C17.8203 3.99058 13.8696 4.41601 12.4867 7.31365C12.2913 7.72296 11.7087 7.72296 11.5133 7.31365C10.1304 4.41601 6.17972 3.99058 4.21154 6.52734L3.90219 6.92607C2.25695 9.0466 2.4945 12.0706 4.45067 13.9082Z" fill="#F25050" stroke="#F25050" stroke-width="2"/>
<mask id="mask0_67_1492" style="mask-type:alpha" maskUnits="userSpaceOnUse" x="1" y="3" width="22" height="19">
<path d="M4.45061 13.9082L11.4032 20.4394C11.6427 20.6644 11.7625 20.7769 11.9037 20.8046C11.9672 20.8171 12.0326 20.8171 12.0962 20.8046C12.2374 20.7769 12.3572 20.6644 12.5967 20.4394L19.5493 13.9082C21.5054 12.0706 21.743 9.04657 20.0977 6.92603L19.7884 6.52731C17.8202 3.99055 13.8696 4.41598 12.4866 7.31362C12.2913 7.72293 11.7086 7.72293 11.5133 7.31362C10.1303 4.41598 6.17966 3.99055 4.21148 6.52731L3.90213 6.92604C2.25689 9.04657 2.49444 12.0706 4.45061 13.9082Z" fill="#187DA9" stroke="#187DA9" stroke-width="2"/>
</mask>
<g mask="url(#mask0_67_1492)">
<path fill-rule="evenodd" clip-rule="evenodd" d="M13.44 2.88182L28.8 18.2418L29.5071 17.5347L14.1471 2.17471L13.44 2.88182ZM12.48 4.80182L27.84 20.1618L28.5471 19.4547L13.1871 4.09471L12.48 4.80182Z" fill="white"/>
</g>
<path d="M33.3306 21V3.38525H41.5215C45.0127 3.38525 47.1245 5.06982 47.1245 7.81641V7.84082C47.1245 9.83057 45.5986 11.4175 43.5967 11.6738V11.7593C46.0015 11.8813 47.8936 13.627 47.8936 15.9341V15.9585C47.8936 19.0225 45.5132 21 41.7412 21H33.3306ZM40.3374 6.54688H37.8105V10.624H40.0078C41.8022 10.624 42.7544 9.84277 42.7544 8.52441V8.5C42.7544 7.2793 41.8511 6.54688 40.3374 6.54688ZM40.3374 13.4438H37.8105V17.8384H40.4717C42.3027 17.8384 43.3403 17.0693 43.3403 15.6411V15.6167C43.3403 14.2129 42.3027 13.4438 40.3374 13.4438ZM52.4297 21.2075C49.9517 21.2075 48.2305 19.7305 48.2305 17.582V17.5576C48.2305 15.397 49.8052 14.1519 52.7227 13.9321L57.0928 13.627V12.4917C57.0928 10.2822 55.7622 8.95166 53.5161 8.95166C51.3799 8.95166 49.9395 9.98926 49.6221 11.8325L49.5977 11.9668H48.6821L48.7065 11.8203C49.0117 9.50098 50.8062 8.09717 53.5161 8.09717C56.3115 8.09717 58.0449 9.75732 58.0449 12.4185V21H57.0928V18.3267H57.0684C56.4336 20.0356 54.5537 21.2075 52.4297 21.2075ZM49.1948 17.582C49.1948 19.2178 50.5986 20.353 52.564 20.353C55.0664 20.353 57.0928 18.5586 57.0928 16.2881V14.4082L52.8569 14.7134C50.4888 14.8965 49.1948 15.8853 49.1948 17.5576V17.582ZM63.6919 21.2075C60.9575 21.2075 59.0654 19.6572 58.8213 17.4478L58.8091 17.3379H59.749L59.7734 17.4478C60.0176 19.1689 61.5312 20.3774 63.6797 20.3774C65.8647 20.3774 67.354 19.291 67.354 17.7163V17.7041C67.354 16.3491 66.5605 15.6533 64.522 15.1772L62.752 14.7622C60.335 14.2007 59.2241 13.2119 59.2241 11.5518V11.5396C59.2241 9.52539 61.0308 8.09717 63.5454 8.09717C66.1455 8.09717 67.8423 9.59863 68.0986 11.8569L68.1108 11.9668H67.1953L67.1831 11.8813C66.939 10.0991 65.5718 8.92725 63.5454 8.92725C61.5679 8.92725 60.1763 10.0137 60.1763 11.5273V11.5396C60.1763 12.748 60.9941 13.4561 63.0327 13.9321L64.8027 14.3472C67.293 14.9331 68.3184 15.8975 68.3184 17.6553V17.6675C68.3184 19.7549 66.3896 21.2075 63.6919 21.2075ZM69.7661 5.81445C69.3755 5.81445 69.0337 5.49707 69.0337 5.09424C69.0337 4.6792 69.3755 4.36182 69.7661 4.36182C70.1689 4.36182 70.5107 4.6792 70.5107 5.09424C70.5107 5.49707 70.1689 5.81445 69.7661 5.81445ZM69.3022 21V8.30469H70.2422V21H69.3022ZM76.9146 21.2075C73.4844 21.2075 71.2993 18.6685 71.2993 14.6523V14.6401C71.2993 10.6362 73.5088 8.09717 76.9146 8.09717C79.6001 8.09717 81.5654 9.76953 81.9561 11.9668L81.9805 12.0889H81.0405L81.0161 11.979C80.6133 10.209 79.0508 8.95166 76.9146 8.95166C74.0703 8.95166 72.2515 11.1611 72.2515 14.6401V14.6523C72.2515 18.1802 74.0947 20.353 76.9146 20.353C79.0142 20.353 80.5889 19.1323 81.0039 17.3257L81.0283 17.2158H81.9683L81.9561 17.3257C81.5288 19.6206 79.5635 21.2075 76.9146 21.2075ZM90.8257 21.3174C85.54 21.3174 82.2563 17.936 82.2563 12.1865V12.1743C82.2563 6.4248 85.5645 3.06787 90.8257 3.06787C95.4277 3.06787 98.6138 6.02197 98.7725 9.96484V10.0869H94.4634L94.439 9.90381C94.1582 8.07275 92.8765 6.77881 90.8257 6.77881C88.3721 6.77881 86.8218 8.79297 86.8218 12.1621V12.1743C86.8218 15.5801 88.3843 17.6064 90.8379 17.6064C92.7788 17.6064 94.1582 16.3979 94.4634 14.4326L94.4878 14.2983H98.7969L98.7847 14.4326C98.626 18.3755 95.4033 21.3174 90.8257 21.3174ZM103.553 21.2075C101.075 21.2075 99.3535 19.7305 99.3535 17.582V17.5576C99.3535 15.397 100.928 14.1519 103.846 13.9321L108.216 13.627V12.4917C108.216 10.2822 106.885 8.95166 104.639 8.95166C102.503 8.95166 101.062 9.98926 100.745 11.8325L100.721 11.9668H99.8052L99.8296 11.8203C100.135 9.50098 101.929 8.09717 104.639 8.09717C107.435 8.09717 109.168 9.75732 109.168 12.4185V21H108.216V18.3267H108.191C107.557 20.0356 105.677 21.2075 103.553 21.2075ZM100.318 17.582C100.318 19.2178 101.722 20.353 103.687 20.353C106.189 20.353 108.216 18.5586 108.216 16.2881V14.4082L103.98 14.7134C101.612 14.8965 100.318 15.8853 100.318 17.5576V17.582ZM110.64 21V8.30469H111.592V10.7583H111.617C112.117 9.08594 113.277 8.09717 114.961 8.09717C115.462 8.09717 115.914 8.20703 116.146 8.30469V9.25684C115.877 9.12256 115.425 9.00049 114.827 9.00049C112.825 9.00049 111.592 10.6851 111.592 13.1021V21H110.64ZM120.792 21.2075C117.349 21.2075 115.127 18.7295 115.127 14.6646V14.6523C115.127 10.6118 117.361 8.09717 120.657 8.09717C123.941 8.09717 126.138 10.563 126.138 14.3716V14.811H116.08C116.128 18.3755 117.996 20.353 120.804 20.353C123.013 20.353 124.527 19.23 124.991 17.46L125.027 17.3623H125.979L125.955 17.4722C125.455 19.7427 123.501 21.2075 120.792 21.2075ZM120.645 8.95166C118.069 8.95166 116.202 10.9048 116.08 14.0176H125.198C125.076 10.8682 123.233 8.95166 120.645 8.95166Z" fill="#F7F7FC"/>
</svg>
