<svg width="25" height="26" viewBox="0 0 25 26" fill="none" xmlns="http://www.w3.org/2000/svg">
<path d="M4.63614 14.9877L11.8784 21.7911C12.1418 22.0385 12.2734 22.1621 12.4307 22.1842C12.4767 22.1906 12.5233 22.1906 12.5693 22.1842C12.7266 22.1621 12.8583 22.0385 13.1216 21.7911L20.3639 14.9877C22.4016 13.0735 22.649 9.92353 20.9352 7.71464L20.613 7.29931C18.5628 4.65685 14.4476 5.1 13.007 8.11838C12.8035 8.54474 12.1966 8.54474 11.9931 8.11838C10.5525 5.1 6.43723 4.65685 4.38704 7.29931L4.0648 7.71464C2.35101 9.92353 2.59846 13.0735 4.63614 14.9877Z" fill="#F25050" stroke="#F25050" stroke-width="2"/>
<mask id="mask0_67_1493" style="mask-type:alpha" maskUnits="userSpaceOnUse" x="1" y="4" width="23" height="20">
<path d="M4.63608 14.9877L11.8784 21.7911C12.1417 22.0384 12.2734 22.1621 12.4307 22.1841C12.4766 22.1906 12.5233 22.1906 12.5692 22.1841C12.7265 22.1621 12.8582 22.0384 13.1215 21.7911L20.3638 14.9877C22.4015 13.0735 22.649 9.9235 20.9352 7.71461L20.6129 7.29928C18.5627 4.65682 14.4475 5.09997 13.0069 8.11835C12.8034 8.54471 12.1965 8.54471 11.993 8.11834C10.5524 5.09997 6.43717 4.65682 4.38698 7.29928L4.06474 7.71461C2.35095 9.9235 2.59839 13.0735 4.63608 14.9877Z" fill="#187DA9" stroke="#187DA9" stroke-width="2"/>
</mask>
<g mask="url(#mask0_67_1493)">
<path fill-rule="evenodd" clip-rule="evenodd" d="M14 3.50188L30 19.5019L30.7071 18.7948L14.7071 2.79477L14 3.50188ZM13 5.50188L29 21.5019L29.7071 20.7948L13.7071 4.79477L13 5.50188Z" fill="white"/>
</g>
</svg>
